PathFileType	4	(X/Y/Z)	C:/Users/opensim2020/Desktop/walking_exp_matlab/subject02_walking11_straight_02.trc																																																																																																																												
DataRate	CameraRate	NumFrames	NumMarkers	Units	OrigDataRate	OrigDataStartFrame	OrigNumFrames																																																																																																																								
100	100	4	42	mm	100	1634	230																																																																																																																								
Frame#	Time	LFHD			RFHD			LBHD			RBHD			C7			T10			CLAV			STRN			RBAK			LSHO			LUPA			LELB			LFRM			LWRA			LWRB			LFIN			RSHO			RUPA			RELB			RFRM			RWRA			RWRB			RFIN			LASI			RASI			LPSI			RPSI			LTHI			LKNE			LTIB			LANK			LHEE			LTOE			RTHI			RKNE			RTIB			RANK			RHEE			RTOE			*39			*40			*41		
		X1	Y1	Z1	X2	Y2	Z2	X3	Y3	Z3	X4	Y4	Z4	X5	Y5	Z5	X6	Y6	Z6	X7	Y7	Z7	X8	Y8	Z8	X9	Y9	Z9	X10	Y10	Z10	X11	Y11	Z11	X12	Y12	Z12	X13	Y13	Z13	X14	Y14	Z14	X15	Y15	Z15	X16	Y16	Z16	X17	Y17	Z17	X18	Y18	Z18	X19	Y19	Z19	X20	Y20	Z20	X21	Y21	Z21	X22	Y22	Z22	X23	Y23	Z23	X24	Y24	Z24	X25	Y25	Z25	X26	Y26	Z26	X27	Y27	Z27	X28	Y28	Z28	X29	Y29	Z29	X30	Y30	Z30	X31	Y31	Z31	X32	Y32	Z32	X33	Y33	Z33	X34	Y34	Z34	X35	Y35	Z35	X36	Y36	Z36	X37	Y37	Z37	X38	Y38	Z38	X39	Y39	Z39	X40	Y40	Z40	X41	Y41	Z41	X42	Y42	Z42
																																																																																																																															
1	0	-874.79407	1733.95801	889.96265	-882.97241	1730.71216	1034.53345	-1006.36121	1661.42822	881.87189	-1027.24951	1656.79736	1024.33606	-1067.42175	1526.55188	966.57672	-1116.43286	1249.57629	974.11688	-926.52985	1460.08887	964.34369	-871.62256	1291.93115	990.06946	-1126.84741	1353.80542	1034.61328	-992.74304	1491.05591	791.59998	-1018.33795	1290.29004	712.44708	-1034.94397	1152.43738	702.36444	-1042.29822	1023.08551	682.68915	-999.08765	889.34912	700.29028	-1047.96851	900.41327	672.67181	-1039.69812	834.42328	664.12042	-1000.8772	1505.51294	1156.78101	-1017.36792	1314.06116	1247.09387	-985.68677	1170.24158	1270.87341	-926.30334	1064.37329	1289.55029	-845.46637	956.36627	1267.15442	-887.6604	940.45471	1301.62036	-833.89471	890.74927	1301.34387	-850.63562	1002.45313	868.72748	-897.74823	973.08514	1117.88904	-1074.2522	1034.60095	910.8291	-1098.35046	1031.58752	1024.94861	-867.67822	690.02106	810.16949	-882.5	485.48959	843.01862	-924.33362	293.67575	840.82892	-913.83575	74.53392	885.06842	-953.14264	46.6516	934.59662	-756.52344	39.52217	887.32263	-1037.23828	677.58398	1186.79907	-1060.27222	476.27814	1185.73132	-1200.51379	356.37265	1168.38843	-1322.13074	213.02681	1118.42639	-1357.59729	193.45143	1046.0874	-1278.99805	58.37801	1155.43115	-978.88788	1810.75183	966.69037	-2845.16699	1034.26013	3360.30225	NaN	NaN	NaN
2	0.01	-867.99689	1735.56909	889.07825	-876.12091	1732.21411	1033.71436	-999.01984	1662.06042	881.0036	-1019.8219	1657.19604	1023.47504	-1059.37402	1527.31714	965.59839	-1108.3811	1250.46973	972.15857	-918.53375	1460.87598	963.46399	-863.79602	1292.49927	988.85541	-1118.82593	1354.50745	1032.96631	-984.72595	1492.14893	790.66101	-1008.62683	1291.03662	711.00031	-1023.59479	1153.09497	700.76294	-1028.36938	1023.18115	681.66296	-983.09778	890.66278	700.28412	-1031.97339	900.63818	672.2099	-1021.97308	834.64209	663.99878	-993.09509	1505.87537	1155.94849	-1010.43512	1314.07642	1245.41394	-979.35553	1170.05688	1268.77576	-920.9765	1063.70996	1287.43298	-840.74518	955.16742	1265.7384	-883.43872	939.51776	1299.77563	-830.26306	889.09753	1299.61108	-843.39453	1001.60895	867.51837	-890.8985	973.70837	1116.88281	-1066.3634	1035.75354	908.76184	-1091.53699	1032.63098	1022.66626	-864.55786	689.67108	809.07178	-880.25757	485.24152	842.00757	-923.40247	293.6369	840.20032	-913.91644	74.43681	885.01416	-953.10919	46.53547	934.42426	-756.60254	39.49801	887.34149	-1025.32263	677.55292	1187.54468	-1044.49915	476.36633	1187.72083	-1185.69458	358.34256	1169.61194	-1309.00073	216.9312	1118.13379	-1343.98291	196.86429	1045.89893	-1267.32007	62.77488	1158.36646	-972.64465	1811.57312	965.82281	-2845.80347	1034.29919	3357.28906	NaN	NaN	NaN
3	0.02	-861.05927	1737.21741	888.35242	-869.32312	1733.70129	1032.85242	-991.64795	1662.57288	880.25562	-1012.45471	1657.52759	1022.72058	-1051.36047	1528.07507	964.68097	-1100.45776	1251.42883	970.0592	-910.57202	1461.54919	962.5506	-856.14972	1292.74109	987.32275	-1110.87585	1355.27661	1031.2738	-976.57343	1493.11938	789.83307	-998.8125	1291.82849	709.71667	-1012.03583	1153.33801	699.43408	-1014.62964	1023.56244	680.81396	-967.00635	891.95636	700.38348	-1015.62262	900.78278	671.92554	-1004.18506	835.11688	664.04895	-985.36652	1506.15613	1155.17053	-1003.50049	1314.05396	1243.80286	-973.09607	1169.97607	1266.90759	-915.70605	1063.23547	1286.0061	-836.24799	953.86121	1264.35278	-879.3446	938.51605	1298.01953	-826.65143	887.42786	1298.16663	-836.27075	1000.65833	866.60712	-884.73322	974.32227	1116.4397	-1059.40369	1037.09998	907.12982	-1084.91431	1033.43237	1020.38568	-861.63074	689.50336	807.94403	-878.25842	485.06866	841.04871	-922.11438	293.7384	839.52759	-914.01288	74.36836	884.94025	-953.42035	46.63006	934.46509	-756.64471	39.47272	887.38422	-1013.12219	677.66382	1188.25183	-1028.81152	476.86008	1189.56238	-1170.85999	360.56354	1170.27148	-1295.02698	220.20795	1117.48547	-1329.62036	198.79079	1045.03235	-1253.64893	67.1855	1161.40466	-966.37183	1812.28589	965.37091	-2845.31787	1034.16797	3360.48706	NaN	NaN	NaN
4	0.03	-853.35107	1738.65027	888.20123	-862.53583	1735.02112	1032.25	-984.3288	1663.24316	879.46692	-1005.0426	1657.76123	1022.01477	-1043.3457	1528.87683	963.7948	-1092.6604	1252.3999	968.16669	-902.66748	1462.1792	961.78857	-848.53033	1293.10571	986.3363	-1103.03918	1355.94934	1029.56519	-968.4212	1494.21936	788.91223	-989.08905	1292.80212	708.35315	-1000.67572	1154.07739	697.82324	-1000.37402	1023.81189	680.13776	-950.8609	893.42657	700.55072	-999.00513	901.0661	671.76978	-985.79346	835.71173	664.1955	-977.70251	1506.45007	1154.3302	-996.68658	1314.0686	1242.42029	-966.84546	1169.85291	1265.09082	-910.54828	1062.59863	1284.32727	-832.09009	952.42548	1262.9342	-875.40961	937.48303	1296.2821	-823.30957	886.04773	1296.99622	-829.25146	999.7168	865.75171	-878.47736	974.83807	1116.08508	-1052.34753	1038.13672	905.37299	-1078.45117	1034.099	1018.21979	-858.55444	689.12976	806.85486	-876.4541	484.88852	840.19226	-921.27728	293.68839	838.82233	-914.04724	74.32042	884.91052	-953.28119	46.41223	934.17462	-756.72772	39.44991	887.3822	-1001.14532	678.27777	1189.52405	-1013.21484	477.5882	1191.08923	-1155.73584	362.51489	1170.37488	-1280.22144	222.5321	1116.88806	-1314.26331	199.56271	1044.52356	-1238.68335	70.72545	1164.38672	-960.13684	1812.98071	964.61761	-2845.99536	1034.34241	3357.63184	NaN	NaN	NaN
